<?xml version="1.0" encoding="utf-8" standalone="no"?>
<!DOCTYPE svg PUBLIC "-//W3C//DTD SVG 1.1//EN"
  "http://www.w3.org/Graphics/SVG/1.1/DTD/svg11.dtd">
<!-- Created with matplotlib (https://matplotlib.org/) -->
<svg height="288pt" version="1.1" viewBox="0 0 576 288" width="576pt" xmlns="http://www.w3.org/2000/svg" xmlns:xlink="http://www.w3.org/1999/xlink">
 <metadata>
  <rdf:RDF xmlns:cc="http://creativecommons.org/ns#" xmlns:dc="http://purl.org/dc/elements/1.1/" xmlns:rdf="http://www.w3.org/1999/02/22-rdf-syntax-ns#">
   <cc:Work>
    <dc:type rdf:resource="http://purl.org/dc/dcmitype/StillImage"/>
    <dc:date>2021-09-28T10:34:45.405224</dc:date>
    <dc:format>image/svg+xml</dc:format>
    <dc:creator>
     <cc:Agent>
      <dc:title>Matplotlib v3.3.4, https://matplotlib.org/</dc:title>
     </cc:Agent>
    </dc:creator>
   </cc:Work>
  </rdf:RDF>
 </metadata>
 <defs>
  <style type="text/css">*{stroke-linecap:butt;stroke-linejoin:round;}</style>
 </defs>
 <g id="figure_1">
  <g id="patch_1">
   <path d="M 0 288 
L 576 288 
L 576 0 
L 0 0 
z
" style="fill:#ffffff;"/>
  </g>
  <g id="axes_1">
   <g id="patch_2">
    <path d="M 34.01 131.746132 
L 565.2 131.746132 
L 565.2 10.8 
L 34.01 10.8 
z
" style="fill:#ffffff;"/>
   </g>
   <g id="matplotlib.axis_1">
    <g id="xtick_1">
     <g id="line2d_1">
      <path clip-path="url(#p7753a39785)" d="M 58.155 131.746132 
L 58.155 10.8 
" style="fill:none;stroke:#cccccc;stroke-linecap:round;stroke-width:0.8;"/>
     </g>
     <g id="line2d_2"/>
    </g>
    <g id="xtick_2">
     <g id="line2d_3">
      <path clip-path="url(#p7753a39785)" d="M 118.5175 131.746132 
L 118.5175 10.8 
" style="fill:none;stroke:#cccccc;stroke-linecap:round;stroke-width:0.8;"/>
     </g>
     <g id="line2d_4"/>
    </g>
    <g id="xtick_3">
     <g id="line2d_5">
      <path clip-path="url(#p7753a39785)" d="M 178.88 131.746132 
L 178.88 10.8 
" style="fill:none;stroke:#cccccc;stroke-linecap:round;stroke-width:0.8;"/>
     </g>
     <g id="line2d_6"/>
    </g>
    <g id="xtick_4">
     <g id="line2d_7">
      <path clip-path="url(#p7753a39785)" d="M 239.2425 131.746132 
L 239.2425 10.8 
" style="fill:none;stroke:#cccccc;stroke-linecap:round;stroke-width:0.8;"/>
     </g>
     <g id="line2d_8"/>
    </g>
    <g id="xtick_5">
     <g id="line2d_9">
      <path clip-path="url(#p7753a39785)" d="M 299.605 131.746132 
L 299.605 10.8 
" style="fill:none;stroke:#cccccc;stroke-linecap:round;stroke-width:0.8;"/>
     </g>
     <g id="line2d_10"/>
    </g>
    <g id="xtick_6">
     <g id="line2d_11">
      <path clip-path="url(#p7753a39785)" d="M 359.9675 131.746132 
L 359.9675 10.8 
" style="fill:none;stroke:#cccccc;stroke-linecap:round;stroke-width:0.8;"/>
     </g>
     <g id="line2d_12"/>
    </g>
    <g id="xtick_7">
     <g id="line2d_13">
      <path clip-path="url(#p7753a39785)" d="M 420.33 131.746132 
L 420.33 10.8 
" style="fill:none;stroke:#cccccc;stroke-linecap:round;stroke-width:0.8;"/>
     </g>
     <g id="line2d_14"/>
    </g>
    <g id="xtick_8">
     <g id="line2d_15">
      <path clip-path="url(#p7753a39785)" d="M 480.6925 131.746132 
L 480.6925 10.8 
" style="fill:none;stroke:#cccccc;stroke-linecap:round;stroke-width:0.8;"/>
     </g>
     <g id="line2d_16"/>
    </g>
    <g id="xtick_9">
     <g id="line2d_17">
      <path clip-path="url(#p7753a39785)" d="M 541.055 131.746132 
L 541.055 10.8 
" style="fill:none;stroke:#cccccc;stroke-linecap:round;stroke-width:0.8;"/>
     </g>
     <g id="line2d_18"/>
    </g>
   </g>
   <g id="matplotlib.axis_2">
    <g id="ytick_1">
     <g id="line2d_19">
      <path clip-path="url(#p7753a39785)" d="M 34.01 126.322367 
L 565.2 126.322367 
" style="fill:none;stroke:#cccccc;stroke-linecap:round;stroke-width:0.8;"/>
     </g>
     <g id="line2d_20"/>
     <g id="text_1">
      <!-- −1.0 -->
      <g style="fill:#262626;" transform="translate(10.769375 129.901273)scale(0.1 -0.1)">
       <defs>
        <path d="M 52.828125 31.203125 
L 5.5625 31.203125 
L 5.5625 39.40625 
L 52.828125 39.40625 
z
" id="ArialMT-8722"/>
        <path d="M 37.25 0 
L 28.46875 0 
L 28.46875 56 
Q 25.296875 52.984375 20.140625 49.953125 
Q 14.984375 46.921875 10.890625 45.40625 
L 10.890625 53.90625 
Q 18.265625 57.375 23.78125 62.296875 
Q 29.296875 67.234375 31.59375 71.875 
L 37.25 71.875 
z
" id="ArialMT-49"/>
        <path d="M 9.078125 0 
L 9.078125 10.015625 
L 19.09375 10.015625 
L 19.09375 0 
z
" id="ArialMT-46"/>
        <path d="M 4.15625 35.296875 
Q 4.15625 48 6.765625 55.734375 
Q 9.375 63.484375 14.515625 67.671875 
Q 19.671875 71.875 27.484375 71.875 
Q 33.25 71.875 37.59375 69.546875 
Q 41.9375 67.234375 44.765625 62.859375 
Q 47.609375 58.5 49.21875 52.21875 
Q 50.828125 45.953125 50.828125 35.296875 
Q 50.828125 22.703125 48.234375 14.96875 
Q 45.65625 7.234375 40.5 3 
Q 35.359375 -1.21875 27.484375 -1.21875 
Q 17.140625 -1.21875 11.234375 6.203125 
Q 4.15625 15.140625 4.15625 35.296875 
z
M 13.1875 35.296875 
Q 13.1875 17.671875 17.3125 11.828125 
Q 21.4375 6 27.484375 6 
Q 33.546875 6 37.671875 11.859375 
Q 41.796875 17.71875 41.796875 35.296875 
Q 41.796875 52.984375 37.671875 58.78125 
Q 33.546875 64.59375 27.390625 64.59375 
Q 21.34375 64.59375 17.71875 59.46875 
Q 13.1875 52.9375 13.1875 35.296875 
z
" id="ArialMT-48"/>
       </defs>
       <use xlink:href="#ArialMT-8722"/>
       <use x="58.398438" xlink:href="#ArialMT-49"/>
       <use x="114.013672" xlink:href="#ArialMT-46"/>
       <use x="141.796875" xlink:href="#ArialMT-48"/>
      </g>
     </g>
    </g>
    <g id="ytick_2">
     <g id="line2d_21">
      <path clip-path="url(#p7753a39785)" d="M 34.01 104.317402 
L 565.2 104.317402 
" style="fill:none;stroke:#cccccc;stroke-linecap:round;stroke-width:0.8;"/>
     </g>
     <g id="line2d_22"/>
     <g id="text_2">
      <!-- −0.8 -->
      <g style="fill:#262626;" transform="translate(10.769375 107.896308)scale(0.1 -0.1)">
       <defs>
        <path d="M 17.671875 38.8125 
Q 12.203125 40.828125 9.5625 44.53125 
Q 6.9375 48.25 6.9375 53.421875 
Q 6.9375 61.234375 12.546875 66.546875 
Q 18.171875 71.875 27.484375 71.875 
Q 36.859375 71.875 42.578125 66.421875 
Q 48.296875 60.984375 48.296875 53.171875 
Q 48.296875 48.1875 45.671875 44.5 
Q 43.0625 40.828125 37.75 38.8125 
Q 44.34375 36.671875 47.78125 31.875 
Q 51.21875 27.09375 51.21875 20.453125 
Q 51.21875 11.28125 44.71875 5.03125 
Q 38.234375 -1.21875 27.640625 -1.21875 
Q 17.046875 -1.21875 10.546875 5.046875 
Q 4.046875 11.328125 4.046875 20.703125 
Q 4.046875 27.6875 7.59375 32.390625 
Q 11.140625 37.109375 17.671875 38.8125 
z
M 15.921875 53.71875 
Q 15.921875 48.640625 19.1875 45.40625 
Q 22.46875 42.1875 27.6875 42.1875 
Q 32.765625 42.1875 36.015625 45.375 
Q 39.265625 48.578125 39.265625 53.21875 
Q 39.265625 58.0625 35.90625 61.359375 
Q 32.5625 64.65625 27.59375 64.65625 
Q 22.5625 64.65625 19.234375 61.421875 
Q 15.921875 58.203125 15.921875 53.71875 
z
M 13.09375 20.65625 
Q 13.09375 16.890625 14.875 13.375 
Q 16.65625 9.859375 20.171875 7.921875 
Q 23.6875 6 27.734375 6 
Q 34.03125 6 38.125 10.046875 
Q 42.234375 14.109375 42.234375 20.359375 
Q 42.234375 26.703125 38.015625 30.859375 
Q 33.796875 35.015625 27.4375 35.015625 
Q 21.234375 35.015625 17.15625 30.90625 
Q 13.09375 26.8125 13.09375 20.65625 
z
" id="ArialMT-56"/>
       </defs>
       <use xlink:href="#ArialMT-8722"/>
       <use x="58.398438" xlink:href="#ArialMT-48"/>
       <use x="114.013672" xlink:href="#ArialMT-46"/>
       <use x="141.796875" xlink:href="#ArialMT-56"/>
      </g>
     </g>
    </g>
    <g id="ytick_3">
     <g id="line2d_23">
      <path clip-path="url(#p7753a39785)" d="M 34.01 82.312438 
L 565.2 82.312438 
" style="fill:none;stroke:#cccccc;stroke-linecap:round;stroke-width:0.8;"/>
     </g>
     <g id="line2d_24"/>
     <g id="text_3">
      <!-- −0.6 -->
      <g style="fill:#262626;" transform="translate(10.769375 85.891344)scale(0.1 -0.1)">
       <defs>
        <path d="M 49.75 54.046875 
L 41.015625 53.375 
Q 39.84375 58.546875 37.703125 60.890625 
Q 34.125 64.65625 28.90625 64.65625 
Q 24.703125 64.65625 21.53125 62.3125 
Q 17.390625 59.28125 14.984375 53.46875 
Q 12.59375 47.65625 12.5 36.921875 
Q 15.671875 41.75 20.265625 44.09375 
Q 24.859375 46.4375 29.890625 46.4375 
Q 38.671875 46.4375 44.84375 39.96875 
Q 51.03125 33.5 51.03125 23.25 
Q 51.03125 16.5 48.125 10.71875 
Q 45.21875 4.9375 40.140625 1.859375 
Q 35.0625 -1.21875 28.609375 -1.21875 
Q 17.625 -1.21875 10.6875 6.859375 
Q 3.765625 14.9375 3.765625 33.5 
Q 3.765625 54.25 11.421875 63.671875 
Q 18.109375 71.875 29.4375 71.875 
Q 37.890625 71.875 43.28125 67.140625 
Q 48.6875 62.40625 49.75 54.046875 
z
M 13.875 23.1875 
Q 13.875 18.65625 15.796875 14.5 
Q 17.71875 10.359375 21.1875 8.171875 
Q 24.65625 6 28.46875 6 
Q 34.03125 6 38.03125 10.484375 
Q 42.046875 14.984375 42.046875 22.703125 
Q 42.046875 30.125 38.078125 34.390625 
Q 34.125 38.671875 28.125 38.671875 
Q 22.171875 38.671875 18.015625 34.390625 
Q 13.875 30.125 13.875 23.1875 
z
" id="ArialMT-54"/>
       </defs>
       <use xlink:href="#ArialMT-8722"/>
       <use x="58.398438" xlink:href="#ArialMT-48"/>
       <use x="114.013672" xlink:href="#ArialMT-46"/>
       <use x="141.796875" xlink:href="#ArialMT-54"/>
      </g>
     </g>
    </g>
    <g id="ytick_4">
     <g id="line2d_25">
      <path clip-path="url(#p7753a39785)" d="M 34.01 60.307473 
L 565.2 60.307473 
" style="fill:none;stroke:#cccccc;stroke-linecap:round;stroke-width:0.8;"/>
     </g>
     <g id="line2d_26"/>
     <g id="text_4">
      <!-- −0.4 -->
      <g style="fill:#262626;" transform="translate(10.769375 63.88638)scale(0.1 -0.1)">
       <defs>
        <path d="M 32.328125 0 
L 32.328125 17.140625 
L 1.265625 17.140625 
L 1.265625 25.203125 
L 33.9375 71.578125 
L 41.109375 71.578125 
L 41.109375 25.203125 
L 50.78125 25.203125 
L 50.78125 17.140625 
L 41.109375 17.140625 
L 41.109375 0 
z
M 32.328125 25.203125 
L 32.328125 57.46875 
L 9.90625 25.203125 
z
" id="ArialMT-52"/>
       </defs>
       <use xlink:href="#ArialMT-8722"/>
       <use x="58.398438" xlink:href="#ArialMT-48"/>
       <use x="114.013672" xlink:href="#ArialMT-46"/>
       <use x="141.796875" xlink:href="#ArialMT-52"/>
      </g>
     </g>
    </g>
    <g id="ytick_5">
     <g id="line2d_27">
      <path clip-path="url(#p7753a39785)" d="M 34.01 38.302509 
L 565.2 38.302509 
" style="fill:none;stroke:#cccccc;stroke-linecap:round;stroke-width:0.8;"/>
     </g>
     <g id="line2d_28"/>
     <g id="text_5">
      <!-- −0.2 -->
      <g style="fill:#262626;" transform="translate(10.769375 41.881415)scale(0.1 -0.1)">
       <defs>
        <path d="M 50.34375 8.453125 
L 50.34375 0 
L 3.03125 0 
Q 2.9375 3.171875 4.046875 6.109375 
Q 5.859375 10.9375 9.828125 15.625 
Q 13.8125 20.3125 21.34375 26.46875 
Q 33.015625 36.03125 37.109375 41.625 
Q 41.21875 47.21875 41.21875 52.203125 
Q 41.21875 57.421875 37.46875 61 
Q 33.734375 64.59375 27.734375 64.59375 
Q 21.390625 64.59375 17.578125 60.78125 
Q 13.765625 56.984375 13.71875 50.25 
L 4.6875 51.171875 
Q 5.609375 61.28125 11.65625 66.578125 
Q 17.71875 71.875 27.9375 71.875 
Q 38.234375 71.875 44.234375 66.15625 
Q 50.25 60.453125 50.25 52 
Q 50.25 47.703125 48.484375 43.546875 
Q 46.734375 39.40625 42.65625 34.8125 
Q 38.578125 30.21875 29.109375 22.21875 
Q 21.1875 15.578125 18.9375 13.203125 
Q 16.703125 10.84375 15.234375 8.453125 
z
" id="ArialMT-50"/>
       </defs>
       <use xlink:href="#ArialMT-8722"/>
       <use x="58.398438" xlink:href="#ArialMT-48"/>
       <use x="114.013672" xlink:href="#ArialMT-46"/>
       <use x="141.796875" xlink:href="#ArialMT-50"/>
      </g>
     </g>
    </g>
    <g id="ytick_6">
     <g id="line2d_29">
      <path clip-path="url(#p7753a39785)" d="M 34.01 16.297545 
L 565.2 16.297545 
" style="fill:none;stroke:#cccccc;stroke-linecap:round;stroke-width:0.8;"/>
     </g>
     <g id="line2d_30"/>
     <g id="text_6">
      <!-- 0.0 -->
      <g style="fill:#262626;" transform="translate(16.61 19.876451)scale(0.1 -0.1)">
       <use xlink:href="#ArialMT-48"/>
       <use x="55.615234" xlink:href="#ArialMT-46"/>
       <use x="83.398438" xlink:href="#ArialMT-48"/>
      </g>
     </g>
    </g>
   </g>
   <g id="line2d_31">
    <path clip-path="url(#p7753a39785)" d="M 58.155 29.412224 
L 59.60515 26.880729 
L 61.0553 24.795009 
L 62.50545 23.092226 
L 63.955601 21.712433 
L 65.405751 20.601124 
L 67.339284 19.455264 
L 69.272818 18.607782 
L 71.206351 17.984112 
L 73.623268 17.433158 
L 76.523569 17.002428 
L 80.390636 16.669798 
L 85.707853 16.451724 
L 94.892137 16.330723 
L 121.478223 16.297973 
L 149.514459 16.411596 
L 156.281827 16.648128 
L 160.632277 17.016602 
L 163.532578 17.455894 
L 165.949494 18.017697 
L 167.883028 18.653512 
L 169.816562 19.517263 
L 171.266712 20.359485 
L 172.716862 21.411424 
L 174.167012 22.719233 
L 175.617162 24.335829 
L 177.067312 26.319978 
L 178.517462 28.734125 
L 179.967613 31.640523 
L 181.417763 35.095271 
L 182.867913 39.140213 
L 184.318063 43.793191 
L 186.251597 50.909023 
L 188.18513 58.915404 
L 191.568814 74.115619 
L 194.469114 86.895962 
L 196.402648 94.585004 
L 198.336181 101.305858 
L 199.786331 105.644324 
L 201.236481 109.380338 
L 202.686632 112.545419 
L 204.136782 115.189908 
L 205.586932 117.373962 
L 207.037082 119.160539 
L 208.487232 120.610547 
L 209.937382 121.779906 
L 211.387533 122.718088 
L 213.321066 123.682027 
L 215.2546 124.39269 
L 217.671517 125.021297 
L 220.571817 125.513003 
L 223.955501 125.856881 
L 228.789334 126.107687 
L 236.040085 126.237965 
L 246.191136 126.194129 
L 252.958504 125.961662 
L 257.308954 125.589251 
L 260.209254 125.143696 
L 262.626171 124.573441 
L 264.559705 123.927957 
L 266.493238 123.05113 
L 267.943388 122.196309 
L 269.393539 121.128892 
L 270.843689 119.802267 
L 272.293839 118.163091 
L 273.743989 116.152273 
L 275.194139 113.707239 
L 276.644289 110.765937 
L 278.094439 107.272947 
L 279.54459 103.187709 
L 280.99474 98.494348 
L 282.928273 91.329086 
L 284.861807 83.284863 
L 288.728874 65.875663 
L 291.629174 53.326626 
L 293.562708 45.90893 
L 295.496241 39.50471 
L 296.946391 35.409374 
L 298.396542 31.906778 
L 299.846692 28.956689 
L 301.296842 26.50386 
L 302.746992 24.486292 
L 304.197142 22.84138 
L 305.647292 21.509948 
L 307.097442 20.438546 
L 309.030976 19.334723 
L 310.96451 18.518912 
L 313.381426 17.795741 
L 315.798343 17.305725 
L 319.182027 16.875089 
L 323.532477 16.578877 
L 329.816461 16.396607 
L 341.901046 16.31035 
L 383.472017 16.330052 
L 394.106451 16.489806 
L 399.423669 16.761281 
L 403.290736 17.174856 
L 406.191036 17.70949 
L 408.607953 18.391851 
L 410.541486 19.162252 
L 412.47502 20.205696 
L 413.92517 21.219664 
L 415.37532 22.48133 
L 416.82547 24.04252 
L 418.275621 25.961135 
L 419.725771 28.299225 
L 421.175921 31.11943 
L 422.626071 34.479382 
L 424.076221 38.423944 
L 425.526371 42.975671 
L 427.459905 49.966248 
L 429.393438 57.874784 
L 432.293739 70.814002 
L 435.677422 85.877372 
L 437.610956 93.673197 
L 439.544489 100.52351 
L 440.99464 104.963566 
L 442.44479 108.798454 
L 443.89494 112.055582 
L 445.34509 114.782825 
L 446.79524 117.039251 
L 448.24539 118.887744 
L 449.695541 120.389803 
L 451.145691 121.602318 
L 452.595841 122.575886 
L 454.529374 123.576893 
L 456.462908 124.31535 
L 458.879825 124.96888 
L 461.780125 125.480324 
L 465.163809 125.838182 
L 469.997643 126.099457 
L 477.248393 126.236257 
L 487.399444 126.198223 
L 494.166812 125.975471 
L 498.517262 125.617694 
L 501.417563 125.189391 
L 503.834479 124.640975 
L 505.768013 124.019925 
L 507.701547 123.17582 
L 509.63508 122.034343 
L 511.08523 120.927148 
L 512.53538 119.552309 
L 513.985531 117.855427 
L 515.435681 115.776631 
L 516.885831 113.253103 
L 518.335981 110.223413 
L 519.786131 106.633992 
L 521.236281 102.447685 
L 522.686431 97.653727 
L 524.619965 90.366698 
L 527.036882 80.099544 
L 533.320866 52.349482 
L 535.254399 45.050421 
L 536.70455 40.246432 
L 538.1547 36.04999 
L 539.60485 32.450853 
L 541.055 29.412224 
L 541.055 29.412224 
" style="fill:none;stroke:#1f77b4;stroke-linecap:round;stroke-width:1.5;"/>
   </g>
   <g id="line2d_32">
    <path clip-path="url(#p7753a39785)" d="M 58.155 29.412224 
L 59.60515 32.450853 
L 61.0553 36.04999 
L 62.50545 40.246432 
L 63.955601 45.050421 
L 65.889134 52.349482 
L 68.306051 62.62701 
L 74.590035 90.366698 
L 76.523569 97.653727 
L 77.973719 102.447685 
L 79.423869 106.633992 
L 80.874019 110.223413 
L 82.324169 113.253103 
L 83.774319 115.776631 
L 85.224469 117.855427 
L 86.67462 119.552309 
L 88.12477 120.927148 
L 89.57492 122.034343 
L 91.508453 123.17582 
L 93.441987 124.019925 
L 95.375521 124.640975 
L 97.792437 125.189391 
L 100.692738 125.617694 
L 104.559805 125.94728 
L 109.877022 126.159321 
L 118.577923 126.248581 
L 127.762207 126.143948 
L 133.562808 125.874843 
L 137.429875 125.480324 
L 140.330175 124.96888 
L 142.747092 124.31535 
L 144.680626 123.576893 
L 146.614159 122.575886 
L 148.064309 121.602318 
L 149.514459 120.389803 
L 150.96461 118.887744 
L 152.41476 117.039251 
L 153.86491 114.782825 
L 155.31506 112.055582 
L 156.76521 108.798454 
L 158.21536 104.963566 
L 159.665511 100.52351 
L 161.115661 95.481496 
L 163.049194 87.903063 
L 165.466111 77.397093 
L 170.783328 53.82006 
L 172.716862 46.344207 
L 174.650395 39.87345 
L 176.100546 35.727608 
L 177.550696 32.176879 
L 179.000846 29.182711 
L 180.450996 26.690764 
L 181.901146 24.63934 
L 183.351296 22.9657 
L 184.801446 21.610275 
L 186.251597 20.519084 
L 188.18513 19.394424 
L 190.118664 18.562921 
L 192.052197 17.951172 
L 194.469114 17.410864 
L 197.369414 16.988531 
L 201.236481 16.66243 
L 207.037082 16.436993 
L 216.70475 16.325143 
L 246.67452 16.299184 
L 270.360305 16.413914 
L 277.127673 16.655208 
L 281.478123 17.031059 
L 284.378423 17.479079 
L 286.79534 18.05194 
L 288.728874 18.700126 
L 290.662407 19.580441 
L 292.112558 20.438546 
L 293.562708 21.509948 
L 295.012858 22.84138 
L 296.463008 24.486292 
L 297.913158 26.50386 
L 299.363308 28.956689 
L 300.813458 31.906778 
L 302.263609 35.409374 
L 303.713759 39.50471 
L 305.163909 44.208163 
L 307.097442 51.385727 
L 309.030976 59.439295 
L 312.898043 76.852573 
L 315.798343 89.39087 
L 317.731877 96.796834 
L 319.66541 103.187709 
L 321.115561 107.272947 
L 322.565711 110.765937 
L 324.015861 113.707239 
L 325.466011 116.152273 
L 326.916161 118.163091 
L 328.366311 119.802267 
L 329.816461 121.128892 
L 331.266612 122.196309 
L 333.200145 123.295889 
L 335.133679 124.10843 
L 337.550596 124.828513 
L 339.967513 125.316173 
L 343.351196 125.744104 
L 347.701647 126.036657 
L 353.985631 126.209339 
L 363.653298 126.234411 
L 371.387432 126.072577 
L 376.221266 125.777364 
L 379.60495 125.374161 
L 382.50525 124.798759 
L 384.922167 124.064603 
L 386.855701 123.236422 
L 388.789234 122.116075 
L 390.239384 121.028933 
L 391.689535 119.678388 
L 393.139685 118.010566 
L 394.589835 115.965978 
L 396.039985 113.481913 
L 397.490135 110.496609 
L 398.940285 106.955541 
L 400.390435 102.819819 
L 401.840586 98.076085 
L 403.774119 90.849603 
L 406.191036 80.635289 
L 412.958403 50.909023 
L 414.891937 43.793191 
L 416.342087 39.140213 
L 417.792237 35.095271 
L 419.242387 31.640523 
L 420.692538 28.734125 
L 422.142688 26.319978 
L 423.592838 24.335829 
L 425.042988 22.719233 
L 426.493138 21.411424 
L 427.943288 20.359485 
L 429.876822 19.27614 
L 431.810355 18.475742 
L 434.227272 17.766428 
L 436.644189 17.285908 
L 440.027873 16.863687 
L 444.378323 16.573301 
L 451.145691 16.387115 
L 464.197042 16.307261 
L 506.73478 16.347386 
L 515.919064 16.527819 
L 520.752898 16.809947 
L 524.136582 17.192466 
L 527.036882 17.737682 
L 529.453799 18.433393 
L 531.387332 19.218656 
L 533.320866 20.281877 
L 534.771016 21.314671 
L 536.221166 22.599227 
L 537.671316 24.187918 
L 539.121466 26.139082 
L 540.571617 28.514982 
L 541.055 29.412224 
L 541.055 29.412224 
" style="fill:none;stroke:#ff7f0e;stroke-linecap:round;stroke-width:1.5;"/>
   </g>
   <g id="patch_3">
    <path d="M 34.01 131.746132 
L 34.01 10.8 
" style="fill:none;stroke:#cccccc;stroke-linecap:square;stroke-linejoin:miter;"/>
   </g>
   <g id="patch_4">
    <path d="M 565.2 131.746132 
L 565.2 10.8 
" style="fill:none;stroke:#cccccc;stroke-linecap:square;stroke-linejoin:miter;"/>
   </g>
   <g id="patch_5">
    <path d="M 34.01 131.746132 
L 565.2 131.746132 
" style="fill:none;stroke:#cccccc;stroke-linecap:square;stroke-linejoin:miter;"/>
   </g>
   <g id="patch_6">
    <path d="M 34.01 10.8 
L 565.2 10.8 
" style="fill:none;stroke:#cccccc;stroke-linecap:square;stroke-linejoin:miter;"/>
   </g>
   <g id="legend_1">
    <g id="line2d_33">
     <path d="M 503.734375 63.285566 
L 523.734375 63.285566 
" style="fill:none;stroke:#1f77b4;stroke-linecap:round;stroke-width:1.5;"/>
    </g>
    <g id="line2d_34"/>
    <g id="text_7">
     <!-- e0_i0 -->
     <g style="fill:#262626;" transform="translate(531.734375 66.785566)scale(0.1 -0.1)">
      <defs>
       <path d="M 42.09375 16.703125 
L 51.171875 15.578125 
Q 49.03125 7.625 43.21875 3.21875 
Q 37.40625 -1.171875 28.375 -1.171875 
Q 17 -1.171875 10.328125 5.828125 
Q 3.65625 12.84375 3.65625 25.484375 
Q 3.65625 38.578125 10.390625 45.796875 
Q 17.140625 53.03125 27.875 53.03125 
Q 38.28125 53.03125 44.875 45.953125 
Q 51.46875 38.875 51.46875 26.03125 
Q 51.46875 25.25 51.421875 23.6875 
L 12.75 23.6875 
Q 13.234375 15.140625 17.578125 10.59375 
Q 21.921875 6.0625 28.421875 6.0625 
Q 33.25 6.0625 36.671875 8.59375 
Q 40.09375 11.140625 42.09375 16.703125 
z
M 13.234375 30.90625 
L 42.1875 30.90625 
Q 41.609375 37.453125 38.875 40.71875 
Q 34.671875 45.796875 27.984375 45.796875 
Q 21.921875 45.796875 17.796875 41.75 
Q 13.671875 37.703125 13.234375 30.90625 
z
" id="ArialMT-101"/>
       <path d="M -1.515625 -19.875 
L -1.515625 -13.53125 
L 56.734375 -13.53125 
L 56.734375 -19.875 
z
" id="ArialMT-95"/>
       <path d="M 6.640625 61.46875 
L 6.640625 71.578125 
L 15.4375 71.578125 
L 15.4375 61.46875 
z
M 6.640625 0 
L 6.640625 51.859375 
L 15.4375 51.859375 
L 15.4375 0 
z
" id="ArialMT-105"/>
      </defs>
      <use xlink:href="#ArialMT-101"/>
      <use x="55.615234" xlink:href="#ArialMT-48"/>
      <use x="111.230469" xlink:href="#ArialMT-95"/>
      <use x="166.845703" xlink:href="#ArialMT-105"/>
      <use x="189.0625" xlink:href="#ArialMT-48"/>
     </g>
    </g>
    <g id="line2d_35">
     <path d="M 503.734375 77.460566 
L 523.734375 77.460566 
" style="fill:none;stroke:#ff7f0e;stroke-linecap:round;stroke-width:1.5;"/>
    </g>
    <g id="line2d_36"/>
    <g id="text_8">
     <!-- e0_i1 -->
     <g style="fill:#262626;" transform="translate(531.734375 80.960566)scale(0.1 -0.1)">
      <use xlink:href="#ArialMT-101"/>
      <use x="55.615234" xlink:href="#ArialMT-48"/>
      <use x="111.230469" xlink:href="#ArialMT-95"/>
      <use x="166.845703" xlink:href="#ArialMT-105"/>
      <use x="189.0625" xlink:href="#ArialMT-49"/>
     </g>
    </g>
   </g>
  </g>
  <g id="axes_2">
   <g id="patch_7">
    <path d="M 34.01 264.58 
L 565.2 264.58 
L 565.2 143.633868 
L 34.01 143.633868 
z
" style="fill:#ffffff;"/>
   </g>
   <g id="matplotlib.axis_3">
    <g id="xtick_10">
     <g id="line2d_37">
      <path clip-path="url(#pa9915b60cd)" d="M 58.155 264.58 
L 58.155 143.633868 
" style="fill:none;stroke:#cccccc;stroke-linecap:round;stroke-width:0.8;"/>
     </g>
     <g id="line2d_38"/>
     <g id="text_9">
      <!-- 0.00 -->
      <g style="fill:#262626;" transform="translate(48.424531 275.237813)scale(0.1 -0.1)">
       <use xlink:href="#ArialMT-48"/>
       <use x="55.615234" xlink:href="#ArialMT-46"/>
       <use x="83.398438" xlink:href="#ArialMT-48"/>
       <use x="139.013672" xlink:href="#ArialMT-48"/>
      </g>
     </g>
    </g>
    <g id="xtick_11">
     <g id="line2d_39">
      <path clip-path="url(#pa9915b60cd)" d="M 118.5175 264.58 
L 118.5175 143.633868 
" style="fill:none;stroke:#cccccc;stroke-linecap:round;stroke-width:0.8;"/>
     </g>
     <g id="line2d_40"/>
     <g id="text_10">
      <!-- 0.25 -->
      <g style="fill:#262626;" transform="translate(108.787031 275.237813)scale(0.1 -0.1)">
       <defs>
        <path d="M 4.15625 18.75 
L 13.375 19.53125 
Q 14.40625 12.796875 18.140625 9.390625 
Q 21.875 6 27.15625 6 
Q 33.5 6 37.890625 10.78125 
Q 42.28125 15.578125 42.28125 23.484375 
Q 42.28125 31 38.0625 35.34375 
Q 33.84375 39.703125 27 39.703125 
Q 22.75 39.703125 19.328125 37.765625 
Q 15.921875 35.84375 13.96875 32.765625 
L 5.71875 33.84375 
L 12.640625 70.609375 
L 48.25 70.609375 
L 48.25 62.203125 
L 19.671875 62.203125 
L 15.828125 42.96875 
Q 22.265625 47.46875 29.34375 47.46875 
Q 38.71875 47.46875 45.15625 40.96875 
Q 51.609375 34.46875 51.609375 24.265625 
Q 51.609375 14.546875 45.953125 7.46875 
Q 39.0625 -1.21875 27.15625 -1.21875 
Q 17.390625 -1.21875 11.203125 4.25 
Q 5.03125 9.71875 4.15625 18.75 
z
" id="ArialMT-53"/>
       </defs>
       <use xlink:href="#ArialMT-48"/>
       <use x="55.615234" xlink:href="#ArialMT-46"/>
       <use x="83.398438" xlink:href="#ArialMT-50"/>
       <use x="139.013672" xlink:href="#ArialMT-53"/>
      </g>
     </g>
    </g>
    <g id="xtick_12">
     <g id="line2d_41">
      <path clip-path="url(#pa9915b60cd)" d="M 178.88 264.58 
L 178.88 143.633868 
" style="fill:none;stroke:#cccccc;stroke-linecap:round;stroke-width:0.8;"/>
     </g>
     <g id="line2d_42"/>
     <g id="text_11">
      <!-- 0.50 -->
      <g style="fill:#262626;" transform="translate(169.149531 275.237813)scale(0.1 -0.1)">
       <use xlink:href="#ArialMT-48"/>
       <use x="55.615234" xlink:href="#ArialMT-46"/>
       <use x="83.398438" xlink:href="#ArialMT-53"/>
       <use x="139.013672" xlink:href="#ArialMT-48"/>
      </g>
     </g>
    </g>
    <g id="xtick_13">
     <g id="line2d_43">
      <path clip-path="url(#pa9915b60cd)" d="M 239.2425 264.58 
L 239.2425 143.633868 
" style="fill:none;stroke:#cccccc;stroke-linecap:round;stroke-width:0.8;"/>
     </g>
     <g id="line2d_44"/>
     <g id="text_12">
      <!-- 0.75 -->
      <g style="fill:#262626;" transform="translate(229.512031 275.237813)scale(0.1 -0.1)">
       <defs>
        <path d="M 4.734375 62.203125 
L 4.734375 70.65625 
L 51.078125 70.65625 
L 51.078125 63.8125 
Q 44.234375 56.546875 37.515625 44.484375 
Q 30.8125 32.421875 27.15625 19.671875 
Q 24.515625 10.6875 23.78125 0 
L 14.75 0 
Q 14.890625 8.453125 18.0625 20.40625 
Q 21.234375 32.375 27.171875 43.484375 
Q 33.109375 54.59375 39.796875 62.203125 
z
" id="ArialMT-55"/>
       </defs>
       <use xlink:href="#ArialMT-48"/>
       <use x="55.615234" xlink:href="#ArialMT-46"/>
       <use x="83.398438" xlink:href="#ArialMT-55"/>
       <use x="139.013672" xlink:href="#ArialMT-53"/>
      </g>
     </g>
    </g>
    <g id="xtick_14">
     <g id="line2d_45">
      <path clip-path="url(#pa9915b60cd)" d="M 299.605 264.58 
L 299.605 143.633868 
" style="fill:none;stroke:#cccccc;stroke-linecap:round;stroke-width:0.8;"/>
     </g>
     <g id="line2d_46"/>
     <g id="text_13">
      <!-- 1.00 -->
      <g style="fill:#262626;" transform="translate(289.874531 275.237813)scale(0.1 -0.1)">
       <use xlink:href="#ArialMT-49"/>
       <use x="55.615234" xlink:href="#ArialMT-46"/>
       <use x="83.398438" xlink:href="#ArialMT-48"/>
       <use x="139.013672" xlink:href="#ArialMT-48"/>
      </g>
     </g>
    </g>
    <g id="xtick_15">
     <g id="line2d_47">
      <path clip-path="url(#pa9915b60cd)" d="M 359.9675 264.58 
L 359.9675 143.633868 
" style="fill:none;stroke:#cccccc;stroke-linecap:round;stroke-width:0.8;"/>
     </g>
     <g id="line2d_48"/>
     <g id="text_14">
      <!-- 1.25 -->
      <g style="fill:#262626;" transform="translate(350.237031 275.237813)scale(0.1 -0.1)">
       <use xlink:href="#ArialMT-49"/>
       <use x="55.615234" xlink:href="#ArialMT-46"/>
       <use x="83.398438" xlink:href="#ArialMT-50"/>
       <use x="139.013672" xlink:href="#ArialMT-53"/>
      </g>
     </g>
    </g>
    <g id="xtick_16">
     <g id="line2d_49">
      <path clip-path="url(#pa9915b60cd)" d="M 420.33 264.58 
L 420.33 143.633868 
" style="fill:none;stroke:#cccccc;stroke-linecap:round;stroke-width:0.8;"/>
     </g>
     <g id="line2d_50"/>
     <g id="text_15">
      <!-- 1.50 -->
      <g style="fill:#262626;" transform="translate(410.599531 275.237813)scale(0.1 -0.1)">
       <use xlink:href="#ArialMT-49"/>
       <use x="55.615234" xlink:href="#ArialMT-46"/>
       <use x="83.398438" xlink:href="#ArialMT-53"/>
       <use x="139.013672" xlink:href="#ArialMT-48"/>
      </g>
     </g>
    </g>
    <g id="xtick_17">
     <g id="line2d_51">
      <path clip-path="url(#pa9915b60cd)" d="M 480.6925 264.58 
L 480.6925 143.633868 
" style="fill:none;stroke:#cccccc;stroke-linecap:round;stroke-width:0.8;"/>
     </g>
     <g id="line2d_52"/>
     <g id="text_16">
      <!-- 1.75 -->
      <g style="fill:#262626;" transform="translate(470.962031 275.237813)scale(0.1 -0.1)">
       <use xlink:href="#ArialMT-49"/>
       <use x="55.615234" xlink:href="#ArialMT-46"/>
       <use x="83.398438" xlink:href="#ArialMT-55"/>
       <use x="139.013672" xlink:href="#ArialMT-53"/>
      </g>
     </g>
    </g>
    <g id="xtick_18">
     <g id="line2d_53">
      <path clip-path="url(#pa9915b60cd)" d="M 541.055 264.58 
L 541.055 143.633868 
" style="fill:none;stroke:#cccccc;stroke-linecap:round;stroke-width:0.8;"/>
     </g>
     <g id="line2d_54"/>
     <g id="text_17">
      <!-- 2.00 -->
      <g style="fill:#262626;" transform="translate(531.324531 275.237813)scale(0.1 -0.1)">
       <use xlink:href="#ArialMT-50"/>
       <use x="55.615234" xlink:href="#ArialMT-46"/>
       <use x="83.398438" xlink:href="#ArialMT-48"/>
       <use x="139.013672" xlink:href="#ArialMT-48"/>
      </g>
     </g>
    </g>
   </g>
   <g id="matplotlib.axis_4">
    <g id="ytick_7">
     <g id="line2d_55">
      <path clip-path="url(#pa9915b60cd)" d="M 34.01 259.082499 
L 565.2 259.082499 
" style="fill:none;stroke:#cccccc;stroke-linecap:round;stroke-width:0.8;"/>
     </g>
     <g id="line2d_56"/>
     <g id="text_18">
      <!-- −1.0 -->
      <g style="fill:#262626;" transform="translate(10.769375 262.661405)scale(0.1 -0.1)">
       <use xlink:href="#ArialMT-8722"/>
       <use x="58.398438" xlink:href="#ArialMT-49"/>
       <use x="114.013672" xlink:href="#ArialMT-46"/>
       <use x="141.796875" xlink:href="#ArialMT-48"/>
      </g>
     </g>
    </g>
    <g id="ytick_8">
     <g id="line2d_57">
      <path clip-path="url(#pa9915b60cd)" d="M 34.01 231.592233 
L 565.2 231.592233 
" style="fill:none;stroke:#cccccc;stroke-linecap:round;stroke-width:0.8;"/>
     </g>
     <g id="line2d_58"/>
     <g id="text_19">
      <!-- −0.5 -->
      <g style="fill:#262626;" transform="translate(10.769375 235.171139)scale(0.1 -0.1)">
       <use xlink:href="#ArialMT-8722"/>
       <use x="58.398438" xlink:href="#ArialMT-48"/>
       <use x="114.013672" xlink:href="#ArialMT-46"/>
       <use x="141.796875" xlink:href="#ArialMT-53"/>
      </g>
     </g>
    </g>
    <g id="ytick_9">
     <g id="line2d_59">
      <path clip-path="url(#pa9915b60cd)" d="M 34.01 204.101967 
L 565.2 204.101967 
" style="fill:none;stroke:#cccccc;stroke-linecap:round;stroke-width:0.8;"/>
     </g>
     <g id="line2d_60"/>
     <g id="text_20">
      <!-- 0.0 -->
      <g style="fill:#262626;" transform="translate(16.61 207.680873)scale(0.1 -0.1)">
       <use xlink:href="#ArialMT-48"/>
       <use x="55.615234" xlink:href="#ArialMT-46"/>
       <use x="83.398438" xlink:href="#ArialMT-48"/>
      </g>
     </g>
    </g>
    <g id="ytick_10">
     <g id="line2d_61">
      <path clip-path="url(#pa9915b60cd)" d="M 34.01 176.6117 
L 565.2 176.6117 
" style="fill:none;stroke:#cccccc;stroke-linecap:round;stroke-width:0.8;"/>
     </g>
     <g id="line2d_62"/>
     <g id="text_21">
      <!-- 0.5 -->
      <g style="fill:#262626;" transform="translate(16.61 180.190607)scale(0.1 -0.1)">
       <use xlink:href="#ArialMT-48"/>
       <use x="55.615234" xlink:href="#ArialMT-46"/>
       <use x="83.398438" xlink:href="#ArialMT-53"/>
      </g>
     </g>
    </g>
    <g id="ytick_11">
     <g id="line2d_63">
      <path clip-path="url(#pa9915b60cd)" d="M 34.01 149.121434 
L 565.2 149.121434 
" style="fill:none;stroke:#cccccc;stroke-linecap:round;stroke-width:0.8;"/>
     </g>
     <g id="line2d_64"/>
     <g id="text_22">
      <!-- 1.0 -->
      <g style="fill:#262626;" transform="translate(16.61 152.700341)scale(0.1 -0.1)">
       <use xlink:href="#ArialMT-49"/>
       <use x="55.615234" xlink:href="#ArialMT-46"/>
       <use x="83.398438" xlink:href="#ArialMT-48"/>
      </g>
     </g>
    </g>
   </g>
   <g id="line2d_65">
    <path clip-path="url(#pa9915b60cd)" d="M 58.155 204.104463 
L 61.538684 219.123872 
L 63.472217 226.867956 
L 65.405751 233.656565 
L 66.855901 238.048539 
L 68.306051 241.836795 
L 69.756201 245.050609 
L 71.206351 247.738975 
L 72.656502 249.961442 
L 74.106652 251.780914 
L 75.556802 253.258604 
L 77.006952 254.450941 
L 78.457102 255.407996 
L 80.390636 256.391763 
L 82.324169 257.11738 
L 84.741086 257.759565 
L 87.641386 258.262386 
L 91.02507 258.614926 
L 95.858904 258.87482 
L 103.593038 259.028354 
L 120.511456 259.080545 
L 138.396642 258.953201 
L 144.680626 258.70801 
L 148.547693 258.369575 
L 151.447993 257.931384 
L 153.86491 257.370978 
L 155.798443 256.73673 
L 157.731977 255.875084 
L 159.182127 255.034889 
L 160.632277 253.985446 
L 162.082427 252.680683 
L 163.532578 251.067767 
L 164.982728 249.088006 
L 166.432878 246.679004 
L 167.883028 243.778521 
L 169.333178 240.330403 
L 170.783328 236.292675 
L 172.233478 231.64726 
L 174.167012 224.541474 
L 176.100546 216.544197 
L 179.484229 201.354855 
L 182.38453 188.577147 
L 184.318063 180.886824 
L 186.251597 174.163083 
L 187.701747 169.821875 
L 189.151897 166.082946 
L 190.602047 162.914992 
L 192.052197 160.267814 
L 193.502347 158.081337 
L 194.952497 156.292635 
L 196.402648 154.8408 
L 197.852798 153.66989 
L 199.302948 152.730398 
L 201.236481 151.765024 
L 203.170015 151.053194 
L 205.586932 150.42337 
L 208.487232 149.930336 
L 211.870916 149.584725 
L 216.70475 149.330017 
L 224.438884 149.17983 
L 241.357302 149.132037 
L 258.759104 149.248101 
L 265.043088 149.478936 
L 269.393539 149.853804 
L 272.293839 150.30069 
L 274.710756 150.87212 
L 276.644289 151.518705 
L 278.577823 152.396874 
L 280.027973 153.252913 
L 281.478123 154.321777 
L 282.928273 155.650111 
L 284.378423 157.291285 
L 285.828574 159.304404 
L 287.278724 161.752023 
L 288.728874 164.696135 
L 290.179024 168.192045 
L 291.629174 172.280127 
L 293.079324 176.976001 
L 295.012858 184.143548 
L 296.946391 192.188104 
L 300.813458 209.58996 
L 303.713759 222.126866 
L 305.647292 229.5347 
L 307.580826 235.928799 
L 309.030976 240.016882 
L 310.481126 243.512792 
L 311.931276 246.456904 
L 313.381426 248.904523 
L 314.831577 250.917642 
L 316.281727 252.558818 
L 317.731877 253.887153 
L 319.182027 254.956017 
L 321.115561 256.057182 
L 323.049094 256.870999 
L 325.466011 257.592383 
L 327.882928 258.081177 
L 331.266612 258.510733 
L 335.617062 258.806197 
L 341.901046 258.988005 
L 353.985631 259.074043 
L 376.221266 259.013795 
L 384.438784 258.800524 
L 388.789234 258.499132 
L 392.172918 258.061018 
L 394.589835 257.562569 
L 397.006752 256.827099 
L 398.940285 255.997625 
L 400.873819 254.875672 
L 402.323969 253.787062 
L 403.774119 252.434784 
L 405.224269 250.764937 
L 406.674419 248.718023 
L 408.12457 246.231351 
L 409.57472 243.243223 
L 411.02487 239.699233 
L 412.47502 235.560683 
L 413.92517 230.814477 
L 415.858704 223.585809 
L 418.275621 213.371653 
L 425.042988 183.667451 
L 426.976522 176.561665 
L 428.426672 171.916251 
L 429.876822 167.878523 
L 431.326972 164.430406 
L 432.777122 161.529922 
L 434.227272 159.120921 
L 435.677422 157.141161 
L 437.127573 155.528246 
L 438.577723 154.223484 
L 440.027873 153.174042 
L 441.961406 152.093311 
L 443.89494 151.294873 
L 446.311857 150.587319 
L 449.212157 150.032715 
L 452.595841 149.643563 
L 456.946291 149.376093 
L 463.713659 149.204829 
L 477.248393 149.133088 
L 498.517262 149.217279 
L 505.768013 149.438605 
L 510.118463 149.771408 
L 513.502147 150.254884 
L 515.919064 150.80446 
L 517.852598 151.426588 
L 519.786131 152.272 
L 521.719665 153.415104 
L 523.169815 154.523786 
L 524.619965 155.900381 
L 526.070115 157.599312 
L 527.520265 159.680458 
L 528.970415 162.206614 
L 530.420566 165.239142 
L 531.870716 168.831485 
L 533.320866 173.0206 
L 534.771016 177.816987 
L 536.70455 185.1061 
L 539.121466 195.372903 
L 541.055 204.104463 
L 541.055 204.104463 
" style="fill:none;stroke:#1f77b4;stroke-linecap:round;stroke-width:1.5;"/>
   </g>
   <g id="line2d_66">
    <path clip-path="url(#pa9915b60cd)" d="M 58.155 204.104463 
L 61.538684 189.085053 
L 63.472217 181.34097 
L 65.405751 174.552361 
L 66.855901 170.160387 
L 68.306051 166.372132 
L 69.756201 163.158317 
L 71.206351 160.469952 
L 72.656502 158.247485 
L 74.106652 156.428014 
L 75.556802 154.950325 
L 77.006952 153.757989 
L 78.457102 152.800936 
L 80.390636 151.817171 
L 82.324169 151.091557 
L 84.741086 150.449378 
L 87.641386 149.946569 
L 91.02507 149.594051 
L 95.858904 149.334222 
L 103.593038 149.180993 
L 120.511456 149.131968 
L 137.913258 149.245601 
L 144.680626 149.500981 
L 148.547693 149.839384 
L 151.447993 150.277562 
L 153.86491 150.837962 
L 155.798443 151.472205 
L 157.731977 152.333848 
L 159.182127 153.174042 
L 160.632277 154.223484 
L 162.082427 155.528246 
L 163.532578 157.141161 
L 164.982728 159.120921 
L 166.432878 161.529922 
L 167.883028 164.430406 
L 169.333178 167.878523 
L 170.783328 171.916251 
L 172.233478 176.561665 
L 174.167012 183.667451 
L 176.100546 191.664728 
L 179.484229 206.85407 
L 182.38453 219.631778 
L 184.318063 227.322102 
L 186.251597 234.045843 
L 187.701747 238.387051 
L 189.151897 242.12598 
L 190.602047 245.293935 
L 192.052197 247.941113 
L 193.502347 250.127591 
L 194.952497 251.916293 
L 196.402648 253.368129 
L 197.852798 254.539041 
L 199.302948 255.478533 
L 201.236481 256.44391 
L 203.170015 257.155744 
L 205.586932 257.785574 
L 208.487232 258.27862 
L 211.870916 258.624253 
L 216.70475 258.879028 
L 224.438884 259.029525 
L 241.840686 259.079814 
L 259.242487 258.950489 
L 265.526471 258.700363 
L 269.393539 258.355154 
L 272.293839 257.908256 
L 274.710756 257.336819 
L 276.644289 256.69023 
L 278.577823 255.812059 
L 280.027973 254.956017 
L 281.478123 253.887153 
L 282.928273 252.558818 
L 284.378423 250.917642 
L 285.828574 248.904523 
L 287.278724 246.456904 
L 288.728874 243.512792 
L 290.179024 240.016882 
L 291.629174 235.928799 
L 293.079324 231.232925 
L 295.012858 224.065378 
L 296.946391 216.020821 
L 300.813458 198.618966 
L 303.713759 186.08206 
L 305.647292 178.674225 
L 307.580826 172.280127 
L 309.030976 168.192045 
L 310.481126 164.696135 
L 311.931276 161.752023 
L 313.381426 159.304404 
L 314.831577 157.291285 
L 316.281727 155.650111 
L 317.731877 154.321777 
L 319.182027 153.252913 
L 321.115561 152.151751 
L 323.049094 151.337937 
L 325.466011 150.616558 
L 327.882928 150.127772 
L 331.266612 149.698235 
L 335.617062 149.402816 
L 341.901046 149.22117 
L 353.985631 149.136735 
L 376.70465 149.201582 
L 384.438784 149.408488 
L 388.789234 149.709835 
L 392.172918 150.147931 
L 394.589835 150.646372 
L 397.006752 151.381837 
L 398.940285 152.211307 
L 400.873819 153.333259 
L 402.323969 154.421868 
L 403.774119 155.774145 
L 405.224269 157.443991 
L 406.674419 159.490904 
L 408.12457 161.977576 
L 409.57472 164.965704 
L 411.02487 168.509693 
L 412.47502 172.648243 
L 413.92517 177.394449 
L 415.858704 184.623117 
L 418.275621 194.837272 
L 425.042988 224.541474 
L 426.976522 231.64726 
L 428.426672 236.292675 
L 429.876822 240.330403 
L 431.326972 243.778521 
L 432.777122 246.679004 
L 434.227272 249.088006 
L 435.677422 251.067767 
L 437.127573 252.680683 
L 438.577723 253.985446 
L 440.027873 255.034889 
L 441.961406 256.115622 
L 443.89494 256.914063 
L 446.311857 257.621623 
L 449.212157 258.176237 
L 452.595841 258.56541 
L 456.946291 258.832929 
L 463.713659 259.004396 
L 477.731777 259.079338 
L 498.033879 258.999257 
L 505.28463 258.794736 
L 509.63508 258.487299 
L 513.018764 258.040458 
L 515.435681 257.532168 
L 517.852598 256.782348 
L 519.786131 255.936933 
L 521.719665 254.793827 
L 523.169815 253.685143 
L 524.619965 252.308547 
L 526.070115 250.609615 
L 527.520265 248.528469 
L 528.970415 246.002312 
L 530.420566 242.969785 
L 531.870716 239.377441 
L 533.320866 235.188326 
L 534.771016 230.391939 
L 536.70455 223.102826 
L 539.121466 212.836022 
L 541.055 204.104463 
L 541.055 204.104463 
" style="fill:none;stroke:#ff7f0e;stroke-linecap:round;stroke-width:1.5;"/>
   </g>
   <g id="patch_8">
    <path d="M 34.01 264.58 
L 34.01 143.633868 
" style="fill:none;stroke:#cccccc;stroke-linecap:square;stroke-linejoin:miter;"/>
   </g>
   <g id="patch_9">
    <path d="M 565.2 264.58 
L 565.2 143.633868 
" style="fill:none;stroke:#cccccc;stroke-linecap:square;stroke-linejoin:miter;"/>
   </g>
   <g id="patch_10">
    <path d="M 34.01 264.58 
L 565.2 264.58 
" style="fill:none;stroke:#cccccc;stroke-linecap:square;stroke-linejoin:miter;"/>
   </g>
   <g id="patch_11">
    <path d="M 34.01 143.633868 
L 565.2 143.633868 
" style="fill:none;stroke:#cccccc;stroke-linecap:square;stroke-linejoin:miter;"/>
   </g>
   <g id="legend_2">
    <g id="line2d_67">
     <path d="M 503.734375 196.119434 
L 523.734375 196.119434 
" style="fill:none;stroke:#1f77b4;stroke-linecap:round;stroke-width:1.5;"/>
    </g>
    <g id="line2d_68"/>
    <g id="text_23">
     <!-- e1_i0 -->
     <g style="fill:#262626;" transform="translate(531.734375 199.619434)scale(0.1 -0.1)">
      <use xlink:href="#ArialMT-101"/>
      <use x="55.615234" xlink:href="#ArialMT-49"/>
      <use x="111.230469" xlink:href="#ArialMT-95"/>
      <use x="166.845703" xlink:href="#ArialMT-105"/>
      <use x="189.0625" xlink:href="#ArialMT-48"/>
     </g>
    </g>
    <g id="line2d_69">
     <path d="M 503.734375 210.294434 
L 523.734375 210.294434 
" style="fill:none;stroke:#ff7f0e;stroke-linecap:round;stroke-width:1.5;"/>
    </g>
    <g id="line2d_70"/>
    <g id="text_24">
     <!-- e1_i1 -->
     <g style="fill:#262626;" transform="translate(531.734375 213.794434)scale(0.1 -0.1)">
      <use xlink:href="#ArialMT-101"/>
      <use x="55.615234" xlink:href="#ArialMT-49"/>
      <use x="111.230469" xlink:href="#ArialMT-95"/>
      <use x="166.845703" xlink:href="#ArialMT-105"/>
      <use x="189.0625" xlink:href="#ArialMT-49"/>
     </g>
    </g>
   </g>
  </g>
 </g>
 <defs>
  <clipPath id="p7753a39785">
   <rect height="120.946132" width="531.19" x="34.01" y="10.8"/>
  </clipPath>
  <clipPath id="pa9915b60cd">
   <rect height="120.946132" width="531.19" x="34.01" y="143.633868"/>
  </clipPath>
 </defs>
</svg>
